<svg width="490" height="226" viewBox="0 0 490 226" fill="none" xmlns="http://www.w3.org/2000/svg">
<g clip-path="url(#clip0_279_832)">
<path d="M103.915 213.424C92.1829 205.78 83.6525 192.04 85.3984 178.149C95.9626 189.115 110.066 195.991 125.213 197.562C131.057 198.147 137.618 198.189 141.768 202.343C144.35 204.929 145.448 208.707 145.504 212.36C145.56 216.013 144.682 219.609 143.81 223.157L144.025 224.043C130.03 223.526 115.648 221.068 103.915 213.424Z" fill="#F0F0F0"/>
<path d="M85.6923 178.146C90.081 188.871 97.7385 197.942 107.577 204.069C109.672 205.425 111.967 206.443 114.379 207.085C116.748 207.635 119.222 207.54 121.542 206.81C123.719 206.174 125.873 205.27 128.167 205.174C129.342 205.142 130.51 205.358 131.596 205.81C132.681 206.261 133.659 206.936 134.465 207.792C136.528 209.871 137.721 212.568 138.797 215.246C139.991 218.219 141.183 221.326 143.615 223.528C143.909 223.794 143.478 224.236 143.184 223.969C138.954 220.138 138.488 213.992 135.163 209.547C133.611 207.473 131.425 205.854 128.753 205.786C126.416 205.726 124.194 206.655 121.996 207.319C119.742 208.064 117.341 208.246 115.001 207.849C112.565 207.332 110.234 206.404 108.109 205.105C103.278 202.257 98.9245 198.667 95.2087 194.467C90.9413 189.697 87.5215 184.232 85.0972 178.31C84.9473 177.943 85.5434 177.781 85.6923 178.146Z" fill="white"/>
<path d="M104.293 202.282C103.041 203.793 101.292 204.81 99.3591 205.15C97.4264 205.491 95.4354 205.134 93.7417 204.142C93.3997 203.941 93.6973 203.4 94.0397 203.602C95.6152 204.528 97.4698 204.861 99.2689 204.54C101.068 204.219 102.693 203.265 103.851 201.851C104.103 201.544 104.543 201.977 104.293 202.282Z" fill="white"/>
<path d="M120.481 207.278C120.142 203.282 118.31 199.559 115.348 196.854C115.054 196.586 115.486 196.144 115.779 196.412C118.856 199.233 120.755 203.111 121.098 207.271C121.13 207.667 120.513 207.673 120.481 207.278Z" fill="white"/>
<path d="M91.7179 189.439C92.3242 188.955 92.801 188.329 93.1053 187.615C93.4095 186.902 93.5318 186.124 93.4612 185.352C93.4238 184.956 94.0411 184.951 94.0783 185.344C94.1524 186.198 94.0163 187.056 93.6819 187.845C93.3474 188.634 92.8248 189.329 92.1598 189.87C92.1013 189.926 92.0237 189.958 91.9427 189.959C91.8616 189.96 91.7832 189.93 91.7234 189.875C91.6651 189.818 91.6319 189.74 91.6309 189.658C91.6299 189.576 91.6611 189.498 91.7179 189.439Z" fill="white"/>
<path d="M125.418 152.728C125.449 152.975 125.479 153.221 125.514 153.47C125.94 156.783 126.634 160.055 127.59 163.255C127.66 163.504 127.735 163.755 127.812 164.001C130.197 171.686 133.989 178.862 138.995 185.163C140.989 187.668 143.171 190.019 145.521 192.193C148.768 195.197 152.527 198.194 154.533 201.983C154.747 202.376 154.936 202.782 155.099 203.198L145.09 223.713C145.044 223.748 145.002 223.786 144.956 223.822L144.594 224.659C144.465 224.555 144.333 224.445 144.204 224.341C144.129 224.281 144.056 224.217 143.981 224.157C143.931 224.116 143.882 224.074 143.835 224.04C143.819 224.026 143.802 224.012 143.79 224.001C143.744 223.966 143.704 223.929 143.661 223.897C142.924 223.282 142.189 222.662 141.458 222.034C141.453 222.032 141.453 222.032 141.451 222.025C135.889 217.233 130.679 211.934 126.44 206.013C126.312 205.835 126.18 205.655 126.057 205.467C124.161 202.788 122.486 199.958 121.051 197.005C120.271 195.386 119.572 193.729 118.959 192.039C117.384 187.671 116.506 183.081 116.357 178.44C116.061 169.186 118.728 159.942 124.939 153.236C125.098 153.064 125.254 152.897 125.418 152.728Z" fill="#F0F0F0"/>
<path d="M125.656 152.901C122.701 164.107 123.353 175.958 127.519 186.772C128.374 189.116 129.594 191.311 131.133 193.275C132.694 195.14 134.726 196.553 137.018 197.367C139.14 198.17 141.403 198.744 143.293 200.048C144.25 200.73 145.053 201.606 145.647 202.62C146.242 203.634 146.616 204.762 146.745 205.93C147.14 208.832 146.469 211.703 145.715 214.489C144.878 217.581 143.959 220.78 144.574 224.002C144.649 224.392 144.039 224.485 143.964 224.095C142.894 218.49 146.224 213.302 146.245 207.751C146.255 205.162 145.485 202.553 143.392 200.89C141.562 199.435 139.229 198.84 137.073 198.047C134.826 197.285 132.799 195.985 131.17 194.26C129.536 192.38 128.234 190.236 127.319 187.92C125.177 182.738 123.863 177.251 123.425 171.661C122.89 165.284 123.451 158.862 125.082 152.674C125.183 152.291 125.756 152.521 125.656 152.901Z" fill="white"/>
<path d="M125.972 183.369C124.063 183.822 122.054 183.581 120.306 182.689C118.557 181.798 117.183 180.315 116.428 178.504C116.276 178.137 116.839 177.884 116.991 178.251C117.691 179.939 118.972 181.321 120.602 182.148C122.231 182.974 124.103 183.191 125.879 182.759C126.265 182.666 126.356 183.276 125.972 183.369Z" fill="white"/>
<path d="M135.888 197.102C138.025 193.708 138.803 189.632 138.068 185.689C137.995 185.299 138.605 185.206 138.678 185.596C139.436 189.7 138.617 193.94 136.386 197.468C136.173 197.804 135.677 197.437 135.888 197.102Z" fill="white"/>
<path d="M123.666 165.545C124.441 165.524 125.199 165.311 125.872 164.924C126.544 164.538 127.11 163.99 127.519 163.331C127.728 162.993 128.224 163.36 128.017 163.697C127.562 164.423 126.936 165.026 126.194 165.455C125.452 165.884 124.616 166.124 123.759 166.155C123.679 166.165 123.598 166.143 123.532 166.095C123.467 166.048 123.422 165.976 123.408 165.897C123.396 165.816 123.416 165.734 123.464 165.668C123.513 165.602 123.585 165.558 123.666 165.545Z" fill="white"/>
<path d="M461.956 213.424C473.688 205.78 482.219 192.04 480.473 178.149C469.909 189.115 455.805 195.991 440.658 197.562C434.814 198.147 428.253 198.189 424.103 202.343C421.521 204.929 420.424 208.707 420.367 212.36C420.311 216.013 421.189 219.609 422.061 223.157L421.847 224.043C435.841 223.526 450.224 221.068 461.956 213.424Z" fill="#AEC07F"/>
<path d="M480.179 178.146C475.791 188.871 468.133 197.942 458.295 204.069C456.2 205.425 453.905 206.443 451.493 207.085C449.123 207.635 446.65 207.54 444.33 206.81C442.152 206.174 439.999 205.27 437.705 205.174C436.53 205.142 435.361 205.358 434.276 205.81C433.191 206.261 432.213 206.936 431.407 207.792C429.343 209.871 428.15 212.568 427.075 215.246C425.881 218.219 424.688 221.326 422.257 223.528C421.962 223.794 422.394 224.236 422.688 223.969C426.918 220.138 427.383 213.992 430.709 209.547C432.26 207.473 434.446 205.854 437.119 205.786C439.456 205.726 441.677 206.655 443.876 207.319C446.129 208.064 448.531 208.246 450.87 207.849C453.307 207.332 455.638 206.404 457.763 205.105C462.594 202.257 466.947 198.667 470.663 194.467C474.93 189.697 478.35 184.232 480.774 178.31C480.924 177.943 480.328 177.781 480.179 178.146Z" fill="white"/>
<path d="M461.578 202.282C462.831 203.793 464.579 204.81 466.512 205.15C468.445 205.491 470.436 205.134 472.129 204.142C472.471 203.941 472.174 203.4 471.832 203.602C470.256 204.528 468.401 204.861 466.602 204.54C464.803 204.219 463.178 203.265 462.02 201.851C461.768 201.544 461.328 201.977 461.578 202.282Z" fill="white"/>
<path d="M445.391 207.278C445.729 203.282 447.562 199.559 450.523 196.854C450.817 196.586 450.386 196.144 450.093 196.412C447.016 199.233 445.117 203.111 444.774 207.271C444.741 207.667 445.359 207.673 445.391 207.278Z" fill="white"/>
<path d="M474.154 189.439C473.547 188.955 473.071 188.329 472.766 187.615C472.462 186.902 472.34 186.124 472.41 185.352C472.448 184.956 471.83 184.951 471.793 185.344C471.719 186.198 471.855 187.056 472.19 187.845C472.524 188.634 473.047 189.329 473.712 189.87C473.77 189.926 473.848 189.958 473.929 189.959C474.01 189.96 474.088 189.93 474.148 189.875C474.206 189.818 474.24 189.74 474.241 189.658C474.242 189.576 474.21 189.498 474.154 189.439Z" fill="white"/>
<path d="M440.453 152.728C440.423 152.975 440.392 153.221 440.357 153.47C439.932 156.783 439.237 160.055 438.281 163.255C438.211 163.504 438.137 163.755 438.06 164.001C435.674 171.686 431.882 178.862 426.877 185.163C424.883 187.668 422.701 190.019 420.35 192.193C417.103 195.197 413.344 198.194 411.338 201.983C411.125 202.376 410.935 202.782 410.772 203.198L420.782 223.713C420.828 223.748 420.869 223.786 420.916 223.821L421.278 224.659C421.407 224.555 421.539 224.445 421.668 224.341C421.743 224.281 421.816 224.217 421.891 224.157C421.94 224.116 421.989 224.074 422.036 224.04C422.053 224.026 422.069 224.012 422.081 224.001C422.128 223.966 422.168 223.929 422.21 223.897C422.948 223.282 423.682 222.661 424.414 222.034C424.418 222.032 424.418 222.032 424.421 222.025C429.982 217.233 435.192 211.934 439.432 206.013C439.559 205.835 439.692 205.655 439.815 205.467C441.711 202.788 443.385 199.958 444.82 197.005C445.601 195.386 446.299 193.729 446.912 192.039C448.487 187.671 449.366 183.081 449.515 178.44C449.811 169.186 447.143 159.942 440.933 153.236C440.774 153.064 440.617 152.897 440.453 152.728Z" fill="#AEC07F"/>
<path d="M440.215 152.901C443.17 164.107 442.518 175.958 438.352 186.772C437.497 189.116 436.277 191.311 434.738 193.275C433.177 195.14 431.145 196.553 428.853 197.367C426.731 198.17 424.468 198.744 422.578 200.048C421.621 200.73 420.818 201.606 420.224 202.62C419.629 203.634 419.255 204.762 419.126 205.93C418.731 208.832 419.402 211.703 420.156 214.489C420.993 217.581 421.912 220.78 421.297 224.002C421.222 224.392 421.832 224.485 421.907 224.095C422.977 218.49 419.647 213.302 419.626 207.751C419.616 205.162 420.386 202.553 422.479 200.89C424.309 199.435 426.642 198.84 428.798 198.047C431.045 197.285 433.072 195.985 434.701 194.26C436.335 192.38 437.637 190.236 438.552 187.92C440.694 182.738 442.008 177.251 442.446 171.661C442.981 165.284 442.42 158.862 440.789 152.674C440.688 152.291 440.115 152.521 440.215 152.901Z" fill="white"/>
<path d="M439.899 183.369C441.809 183.822 443.817 183.581 445.565 182.689C447.314 181.798 448.688 180.315 449.444 178.504C449.595 178.137 449.032 177.884 448.88 178.251C448.18 179.939 446.899 181.321 445.27 182.148C443.64 182.974 441.768 183.191 439.992 182.759C439.606 182.666 439.515 183.276 439.899 183.369Z" fill="white"/>
<path d="M429.983 197.102C427.846 193.708 427.068 189.632 427.803 185.689C427.876 185.299 427.266 185.206 427.193 185.596C426.435 189.7 427.254 193.94 429.485 197.468C429.698 197.804 430.194 197.437 429.983 197.102Z" fill="white"/>
<path d="M442.205 165.545C441.43 165.524 440.672 165.311 439.999 164.924C439.327 164.538 438.761 163.99 438.352 163.331C438.144 162.993 437.648 163.36 437.855 163.697C438.31 164.423 438.935 165.026 439.678 165.455C440.42 165.884 441.255 166.124 442.112 166.155C442.192 166.165 442.274 166.143 442.339 166.095C442.404 166.048 442.449 165.976 442.464 165.897C442.476 165.816 442.455 165.734 442.407 165.668C442.358 165.602 442.286 165.558 442.205 165.545Z" fill="white"/>
<path d="M127.023 146.014C126.579 145.747 126.199 145.386 125.91 144.956C125.621 144.527 125.429 144.039 125.349 143.527C125.269 143.015 125.302 142.492 125.446 141.995C125.59 141.497 125.841 141.037 126.182 140.647L119.941 129.711L126.472 130.133L131.397 140.453C132.015 141.069 132.384 141.89 132.437 142.761C132.489 143.631 132.22 144.491 131.681 145.176C131.142 145.862 130.37 146.326 129.511 146.48C128.653 146.635 127.767 146.469 127.023 146.014Z" fill="#FFB6B6"/>
<path d="M78.981 220.566H83.3019L85.3574 203.905L78.9805 203.905L78.981 220.566Z" fill="#FFB6B6"/>
<path d="M77.8789 219.156L86.3877 219.156C87.8257 219.156 89.2052 219.727 90.2221 220.744C91.239 221.76 91.8103 223.139 91.8104 224.577V224.753L77.8791 224.753L77.8789 219.156Z" fill="#2F2E41"/>
<path d="M108.584 220.566H112.904L114.96 203.905L108.583 203.905L108.584 220.566Z" fill="#FFB6B6"/>
<path d="M107.482 219.156L115.991 219.156C117.429 219.156 118.808 219.727 119.825 220.744C120.842 221.76 121.413 223.139 121.413 224.577V224.753L107.482 224.753L107.482 219.156Z" fill="#2F2E41"/>
<path d="M119.694 130.181C119.694 130.181 120.882 147.101 118.542 155.622C116.201 164.143 115.783 215.674 115.783 215.674H107.938L101.138 145.529L85.4616 215.922L77.9888 215.408L82.087 132.46L119.694 130.181Z" fill="#2F2E41"/>
<path d="M85.3293 73.1459L91.3269 68.7702L101.377 70.958L104.097 77.4207L108.785 79.7443C110.326 80.5083 111.659 81.6351 112.669 83.0278C113.678 84.4204 114.335 86.0374 114.581 87.7396L121.278 133.975L82.0873 132.46L77.3428 78.0093C77.2932 77.4405 77.3583 76.8675 77.5341 76.3243C77.71 75.7811 77.993 75.2787 78.3665 74.8468C78.7401 74.4149 79.1964 74.0623 79.7087 73.8099C80.2209 73.5575 80.7786 73.4103 81.3487 73.3772L85.3293 73.1459Z" fill="#6CBDFD"/>
<path d="M111.265 83.356L114.884 88.2341L130.65 136.309L123.26 139.267L111.427 116.865L111.265 83.356Z" fill="#6CBDFD"/>
<path d="M98.1439 66.4858C102.978 66.4858 106.897 62.5677 106.897 57.7345C106.897 52.9013 102.978 48.9832 98.1439 48.9832C93.3096 48.9832 89.3906 52.9013 89.3906 57.7345C89.3906 62.5677 93.3096 66.4858 98.1439 66.4858Z" fill="#FFB9B9"/>
<path opacity="0.1" d="M79.0615 93.7393L93.3457 113.602L109.312 124.011L79.0615 93.7393Z" fill="black"/>
<path d="M93.5046 64.061C92.8958 62.8456 92.2694 61.5227 92.5021 60.1835C92.7349 58.8443 94.2721 57.6774 95.4584 58.3413C95.9507 56.5629 98.1297 55.7845 99.9639 55.9899C101.798 56.1952 103.487 57.0797 105.293 57.4595C107.099 57.8392 109.293 57.5379 110.269 55.9719L107.933 55.9315L110.366 53.111L107.546 52.9001C108.523 51.8463 108.263 50.056 107.318 48.9742C106.373 47.8924 104.938 47.3806 103.538 47.0569C100.743 46.4129 97.8464 46.3463 95.0251 46.8613C93.6948 47.0663 92.4131 47.5122 91.243 48.1771C90.141 48.8491 89.2305 49.7931 88.599 50.9185C87.9176 52.1882 87.5492 53.6022 87.5247 55.0428C87.483 56.9726 87.9266 58.8819 88.8146 60.5958C89.7026 62.3097 91.0066 63.7734 92.6072 64.8527" fill="#2F2E41"/>
<path d="M419.416 224.978H147.772C144.974 224.975 142.292 223.863 140.314 221.885C138.336 219.907 137.223 217.226 137.22 214.429V10.5489C137.223 7.7521 138.336 5.07076 140.314 3.09315C142.292 1.11553 144.974 0.00313987 147.772 0H419.416C422.214 0.00318952 424.896 1.11561 426.874 3.09322C428.852 5.07083 429.964 7.75214 429.968 10.5489V214.429C429.964 217.226 428.852 219.907 426.874 221.885C424.896 223.863 422.214 224.975 419.416 224.978Z" fill="#A9A9A9"/>
<path d="M351.049 93.6106H309.116C307.044 93.6106 305.057 92.7876 303.591 91.3226C302.126 89.8576 301.303 87.8706 301.303 85.7988C301.303 83.727 302.126 81.7401 303.591 80.2751C305.057 78.8101 307.044 77.9871 309.116 77.9871H351.049C353.121 77.9871 355.109 78.8101 356.574 80.2751C358.039 81.7401 358.863 83.727 358.863 85.7988C358.863 87.8706 358.039 89.8576 356.574 91.3226C355.109 92.7876 353.121 93.6106 351.049 93.6106Z" fill="white"/>
<path d="M314.325 114.963H304.428C303.668 114.963 302.939 114.661 302.402 114.124C301.865 113.587 301.563 112.858 301.563 112.098C301.563 111.339 301.865 110.61 302.402 110.073C302.939 109.536 303.668 109.234 304.428 109.234H314.325C315.085 109.234 315.814 109.536 316.351 110.073C316.888 110.61 317.19 111.339 317.19 112.098C317.19 112.858 316.888 113.587 316.351 114.124C315.814 114.661 315.085 114.963 314.325 114.963Z" fill="white"/>
<path d="M355.476 114.963H345.579C344.819 114.963 344.091 114.661 343.553 114.124C343.016 113.587 342.714 112.858 342.714 112.098C342.714 111.339 343.016 110.61 343.553 110.073C344.091 109.536 344.819 109.234 345.579 109.234H355.476C356.236 109.234 356.965 109.536 357.502 110.073C358.04 110.61 358.341 111.339 358.341 112.098C358.341 112.858 358.04 113.587 357.502 114.124C356.965 114.661 356.236 114.963 355.476 114.963Z" fill="white"/>
<path d="M334.641 114.963H324.743C323.984 114.963 323.255 114.661 322.718 114.124C322.18 113.587 321.878 112.858 321.878 112.098C321.878 111.339 322.18 110.61 322.718 110.073C323.255 109.536 323.984 109.234 324.743 109.234H334.641C335.4 109.234 336.129 109.536 336.666 110.073C337.204 110.61 337.505 111.339 337.505 112.098C337.505 112.858 337.204 113.587 336.666 114.124C336.129 114.661 335.4 114.963 334.641 114.963Z" fill="white"/>
<path d="M314.325 125.899H304.428C303.668 125.899 302.939 125.597 302.402 125.06C301.865 124.523 301.563 123.794 301.563 123.035C301.563 122.275 301.865 121.547 302.402 121.009C302.939 120.472 303.668 120.171 304.428 120.171H314.325C315.085 120.171 315.814 120.472 316.351 121.009C316.888 121.547 317.19 122.275 317.19 123.035C317.19 123.794 316.888 124.523 316.351 125.06C315.814 125.597 315.085 125.899 314.325 125.899Z" fill="white"/>
<path d="M355.476 125.899H345.579C344.819 125.899 344.091 125.597 343.553 125.06C343.016 124.523 342.714 123.794 342.714 123.035C342.714 122.275 343.016 121.547 343.553 121.009C344.091 120.472 344.819 120.171 345.579 120.171H355.476C356.236 120.171 356.965 120.472 357.502 121.009C358.04 121.547 358.341 122.275 358.341 123.035C358.341 123.794 358.04 124.523 357.502 125.06C356.965 125.597 356.236 125.899 355.476 125.899Z" fill="white"/>
<path d="M334.641 125.899H324.743C323.984 125.899 323.255 125.597 322.718 125.06C322.18 124.523 321.878 123.794 321.878 123.035C321.878 122.275 322.18 121.547 322.718 121.009C323.255 120.472 323.984 120.171 324.743 120.171H334.641C335.4 120.171 336.129 120.472 336.666 121.009C337.204 121.547 337.505 122.275 337.505 123.035C337.505 123.794 337.204 124.523 336.666 125.06C336.129 125.597 335.4 125.899 334.641 125.899Z" fill="white"/>
<path d="M314.325 136.836H304.428C303.668 136.836 302.939 136.534 302.402 135.997C301.865 135.459 301.563 134.731 301.563 133.971C301.563 133.212 301.865 132.483 302.402 131.946C302.939 131.409 303.668 131.107 304.428 131.107H314.325C315.085 131.107 315.814 131.409 316.351 131.946C316.888 132.483 317.19 133.212 317.19 133.971C317.19 134.731 316.888 135.459 316.351 135.997C315.814 136.534 315.085 136.836 314.325 136.836Z" fill="white"/>
<path d="M355.476 136.836H345.579C344.819 136.836 344.091 136.534 343.553 135.997C343.016 135.459 342.714 134.731 342.714 133.971C342.714 133.212 343.016 132.483 343.553 131.946C344.091 131.409 344.819 131.107 345.579 131.107H355.476C356.236 131.107 356.965 131.409 357.502 131.946C358.04 132.483 358.341 133.212 358.341 133.971C358.341 134.731 358.04 135.459 357.502 135.997C356.965 136.534 356.236 136.836 355.476 136.836Z" fill="white"/>
<path d="M334.641 136.836H324.743C323.984 136.836 323.255 136.534 322.718 135.997C322.18 135.459 321.878 134.731 321.878 133.971C321.878 133.212 322.18 132.483 322.718 131.946C323.255 131.409 323.984 131.107 324.743 131.107H334.641C335.4 131.107 336.129 131.409 336.666 131.946C337.204 132.483 337.505 133.212 337.505 133.971C337.505 134.731 337.204 135.459 336.666 135.997C336.129 136.534 335.4 136.836 334.641 136.836Z" fill="white"/>
<path d="M314.325 147.772H304.428C303.668 147.772 302.939 147.47 302.402 146.933C301.865 146.396 301.563 145.667 301.563 144.908C301.563 144.148 301.865 143.42 302.402 142.882C302.939 142.345 303.668 142.043 304.428 142.043H314.325C315.085 142.043 315.814 142.345 316.351 142.882C316.888 143.42 317.19 144.148 317.19 144.908C317.19 145.667 316.888 146.396 316.351 146.933C315.814 147.47 315.085 147.772 314.325 147.772Z" fill="white"/>
<path d="M355.476 147.772H345.579C344.819 147.772 344.091 147.47 343.553 146.933C343.016 146.396 342.714 145.667 342.714 144.908C342.714 144.148 343.016 143.42 343.553 142.882C344.091 142.345 344.819 142.043 345.579 142.043H355.476C356.236 142.043 356.965 142.345 357.502 142.882C358.04 143.42 358.341 144.148 358.341 144.908C358.341 145.667 358.04 146.396 357.502 146.933C356.965 147.47 356.236 147.772 355.476 147.772Z" fill="white"/>
<path d="M334.641 147.772H324.743C323.984 147.772 323.255 147.47 322.718 146.933C322.18 146.396 321.878 145.667 321.878 144.908C321.878 144.148 322.18 143.42 322.718 142.882C323.255 142.345 323.984 142.043 324.743 142.043H334.641C335.4 142.043 336.129 142.345 336.666 142.882C337.204 143.42 337.505 144.148 337.505 144.908C337.505 145.667 337.204 146.396 336.666 146.933C336.129 147.47 335.4 147.772 334.641 147.772Z" fill="white"/>
<path d="M247.389 136.315C262.061 136.315 273.955 124.424 273.955 109.755C273.955 95.0862 262.061 83.1949 247.389 83.1949C232.717 83.1949 220.823 95.0862 220.823 109.755C220.823 124.424 232.717 136.315 247.389 136.315Z" fill="#CACACA"/>
<path d="M247.389 142.304C245.318 142.301 243.332 141.478 241.867 140.013C240.402 138.549 239.578 136.563 239.576 134.492V85.0177C239.575 83.9913 239.776 82.9748 240.169 82.0263C240.561 81.0778 241.136 80.2159 241.862 79.4898C242.588 78.7638 243.449 78.1878 244.398 77.7948C245.346 77.4019 246.363 77.1996 247.389 77.1996C248.416 77.1996 249.432 77.4019 250.381 77.7948C251.329 78.1878 252.191 78.7638 252.916 79.4898C253.642 80.2159 254.217 81.0778 254.61 82.0263C255.002 82.9748 255.204 83.9913 255.203 85.0177V134.492C255.2 136.563 254.376 138.549 252.912 140.013C251.447 141.478 249.461 142.301 247.389 142.304Z" fill="white"/>
<path d="M316.792 90.2563H309.5C309.224 90.2563 308.959 90.1465 308.763 89.9512C308.568 89.7559 308.458 89.4909 308.458 89.2147C308.458 88.9385 308.568 88.6735 308.763 88.4782C308.959 88.2829 309.224 88.1731 309.5 88.1731H316.792C317.069 88.1731 317.334 88.2829 317.529 88.4782C317.724 88.6735 317.834 88.9385 317.834 89.2147C317.834 89.4909 317.724 89.7559 317.529 89.9512C317.334 90.1465 317.069 90.2563 316.792 90.2563Z" fill="#E4E4E4"/>
<path d="M328.252 90.5167H320.959C320.683 90.5167 320.418 90.4069 320.223 90.2116C320.027 90.0163 319.917 89.7513 319.917 89.4751C319.917 89.1989 320.027 88.9339 320.223 88.7386C320.418 88.5433 320.683 88.4335 320.959 88.4335H328.252C328.528 88.4335 328.793 88.5433 328.989 88.7386C329.184 88.9339 329.294 89.1989 329.294 89.4751C329.294 89.7513 329.184 90.0163 328.989 90.2116C328.793 90.4069 328.528 90.5167 328.252 90.5167Z" fill="#E4E4E4"/>
<path d="M339.712 90.777H332.419C332.143 90.777 331.878 90.6673 331.683 90.472C331.487 90.2766 331.377 90.0117 331.377 89.7355C331.377 89.4592 331.487 89.1943 331.683 88.999C331.878 88.8036 332.143 88.6939 332.419 88.6939H339.712C339.988 88.6939 340.253 88.8036 340.449 88.999C340.644 89.1943 340.754 89.4592 340.754 89.7355C340.754 90.0117 340.644 90.2766 340.449 90.472C340.253 90.6673 339.988 90.777 339.712 90.777Z" fill="#E4E4E4"/>
<path d="M351.172 91.0374H343.879C343.603 91.0374 343.338 90.9277 343.143 90.7324C342.947 90.537 342.837 90.2721 342.837 89.9959C342.837 89.7196 342.947 89.4547 343.143 89.2594C343.338 89.0641 343.603 88.9543 343.879 88.9543H351.172C351.448 88.9543 351.713 89.0641 351.908 89.2594C352.104 89.4547 352.214 89.7196 352.214 89.9959C352.214 90.2721 352.104 90.537 351.908 90.7324C351.713 90.9277 351.448 91.0374 351.172 91.0374Z" fill="#E4E4E4"/>
<path d="M171.858 192.819C171.858 194.109 172.114 195.386 172.611 196.576C173.108 197.766 173.837 198.845 174.755 199.751H170.452C169.182 199.751 167.925 199.501 166.752 199.015C165.579 198.529 164.513 197.817 163.616 196.92C162.718 196.022 162.006 194.957 161.52 193.784C161.034 192.612 160.784 191.355 160.784 190.086V33.3915C160.784 32.1222 161.034 30.8654 161.52 29.6928C162.006 28.5201 162.718 27.4547 163.616 26.5572C164.513 25.6597 165.579 24.9477 166.752 24.462C167.925 23.9763 169.182 23.7263 170.452 23.7263H176.713C175.237 24.585 174.011 25.816 173.159 27.2965C172.307 28.7769 171.859 30.455 171.858 32.163L171.858 192.819Z" fill="#CACACA"/>
<path d="M489.38 226H0.62039C0.456206 226 0.298912 225.934 0.182984 225.818C0.0670567 225.702 0.00195312 225.544 0.00195312 225.38C0.00195312 225.216 0.0670567 225.058 0.182984 224.942C0.298912 224.826 0.456206 224.76 0.62039 224.76H489.38C489.544 224.76 489.702 224.825 489.818 224.941C489.935 225.058 490 225.215 490 225.38C490 225.544 489.935 225.702 489.818 225.818C489.702 225.935 489.544 226 489.38 226Z" fill="#CACACA"/>
<path d="M170.816 69.5135C167.524 68.5917 164.22 67.7376 160.904 66.9512C149.563 64.2447 138.065 62.2411 126.477 60.9518C124.513 60.4347 122.424 60.7142 120.665 61.7296C118.906 62.745 117.619 64.4139 117.085 66.3732L111.298 87.7253C110.767 89.6934 111.038 91.7919 112.053 93.5602C113.068 95.3284 114.743 96.6219 116.71 97.1566L116.789 97.1723C124.446 98.042 132.176 99.2502 139.864 100.792C140.552 100.927 141.235 101.068 141.922 101.214C144.386 101.724 146.843 102.269 149.293 102.849C150.366 103.099 151.434 103.359 152.507 103.625C155.392 104.343 158.28 105.109 161.169 105.921C164.383 106.828 167.599 107.795 170.816 108.822C171.166 108.926 171.515 109.036 171.858 109.15V69.8103C171.515 69.7062 171.166 69.6072 170.816 69.5135Z" fill="white"/>
<path d="M170.816 69.5135C167.524 68.5917 164.22 67.7376 160.904 66.9512C149.563 64.2447 138.065 62.2411 126.477 60.9518C124.513 60.4347 122.424 60.7142 120.665 61.7296C118.906 62.745 117.619 64.4139 117.085 66.3732L111.298 87.7253C110.767 89.6934 111.038 91.7919 112.053 93.5602C113.068 95.3284 114.743 96.6219 116.71 97.1566L116.789 97.1723C124.446 98.042 132.176 99.2502 139.864 100.792C140.552 100.927 141.235 101.068 141.922 101.214C144.386 101.724 146.843 102.269 149.293 102.849C150.366 103.099 151.434 103.359 152.507 103.625C155.392 104.343 158.28 105.109 161.169 105.921C164.383 106.828 167.599 107.795 170.816 108.822C171.166 108.926 171.515 109.036 171.858 109.15V108.051C171.509 107.942 171.16 107.833 170.816 107.723C167.858 106.781 164.903 105.894 161.951 105.062C160.846 104.744 159.742 104.437 158.638 104.14C156.648 103.604 154.663 103.09 152.684 102.599C151.632 102.333 150.581 102.078 149.532 101.833C149.454 101.812 149.371 101.797 149.293 101.776C147.506 101.354 145.716 100.951 143.922 100.568C143.235 100.422 142.547 100.276 141.859 100.135C133.567 98.4169 125.211 97.0785 116.945 96.1411C115.254 95.6703 113.817 94.5508 112.948 93.0263C112.079 91.5018 111.847 89.6957 112.304 88.0012L118.091 66.644C118.554 64.9446 119.672 63.4983 121.2 62.6225C122.729 61.7467 124.542 61.513 126.243 61.9725L126.321 61.9829C137.762 63.253 149.115 65.2218 160.315 67.8782C160.43 67.9095 160.544 67.9355 160.659 67.9615C164.055 68.774 167.441 69.6523 170.816 70.5967C171.16 70.6904 171.509 70.7894 171.858 70.8935V69.8103C171.515 69.7062 171.166 69.6072 170.816 69.5135Z" fill="url(#paint0_linear_279_832)"/>
<path d="M171.858 70.352V108.598C171.509 108.484 171.166 108.374 170.816 108.265C167.738 107.281 164.649 106.354 161.55 105.484C158.575 104.64 155.591 103.847 152.596 103.104C151.533 102.844 150.475 102.588 149.413 102.338C149.371 102.151 149.329 101.963 149.293 101.776C149.1 100.88 148.949 99.9741 148.835 99.0627C148.782 98.7138 148.746 98.3649 148.709 98.0107C148.161 92.4313 148.925 86.8011 150.94 81.5693C152.955 76.3376 156.166 71.6491 160.315 67.8783C160.466 67.7324 160.622 67.5918 160.779 67.4564C164.144 68.2584 167.49 69.1264 170.816 70.0603C171.166 70.1489 171.515 70.2478 171.858 70.352Z" fill="url(#paint1_linear_279_832)"/>
<path d="M137.265 86.0119L122.779 84.3037C122.269 84.2435 121.753 84.2843 121.259 84.4237C120.765 84.5631 120.304 84.7983 119.901 85.1161C119.498 85.4338 119.161 85.8277 118.911 86.2754C118.66 86.7231 118.5 87.2158 118.44 87.7253C118.38 88.2348 118.421 88.7512 118.56 89.2449C118.699 89.7387 118.935 90.2001 119.253 90.603C119.57 91.0058 119.964 91.3421 120.412 91.5927C120.86 91.8432 121.353 92.0032 121.862 92.0634L136.349 93.7715C137.376 93.8904 138.41 93.5968 139.221 92.9552C140.033 92.3136 140.557 91.3763 140.678 90.3489C140.8 89.3216 140.509 88.288 139.869 87.475C139.229 86.6619 138.293 86.1357 137.265 86.0119ZM139.651 90.2302C139.56 90.984 139.174 91.671 138.578 92.1406C137.981 92.6101 137.222 92.824 136.468 92.7352L121.982 91.027C121.23 90.9355 120.544 90.5496 120.076 89.9539C119.608 89.3582 119.395 88.6012 119.484 87.8488C119.573 87.0964 119.956 86.4099 120.551 85.9397C121.145 85.4695 121.901 85.2538 122.654 85.3401L137.14 87.0482C137.894 87.1395 138.582 87.5254 139.052 88.1215C139.523 88.7177 139.738 89.4758 139.651 90.2302Z" fill="url(#paint2_linear_279_832)"/>
<path d="M171.858 79.3094V97.4482C171.524 97.649 171.176 97.8265 170.817 97.9795C168.947 98.814 166.874 99.0841 164.853 98.7566C162.832 98.429 160.95 97.5181 159.44 96.1359C159.294 96.0057 159.148 95.8651 159.008 95.7193C158.867 95.5786 158.732 95.4276 158.602 95.2766C157.029 93.4709 156.12 91.1826 156.025 88.7902C155.93 86.3979 156.655 84.0449 158.08 82.1203C159.504 80.1957 161.543 78.8148 163.859 78.2062C166.175 77.5975 168.63 77.7975 170.817 78.773C171.173 78.933 171.521 79.112 171.858 79.3094Z" fill="white"/>
<path d="M170.817 92.4383C166.717 93.2924 162.646 94.2385 158.602 95.2766C157.091 95.662 155.586 96.0613 154.086 96.4744C152.294 96.9692 150.502 97.4813 148.71 98.0107C146.423 98.6877 144.14 99.396 141.86 100.136C141.198 100.354 140.532 100.573 139.865 100.792C133.525 102.906 127.228 105.25 121.034 107.807C119.063 108.299 117.367 109.55 116.314 111.287C115.261 113.025 114.938 115.107 115.414 117.082L120.638 138.58C121.122 140.56 122.371 142.267 124.112 143.327C125.854 144.388 127.944 144.714 129.926 144.235L129.999 144.209C140.184 140.033 150.608 136.464 161.217 133.523C164.384 132.643 167.584 131.813 170.817 131.034C171.166 130.95 171.51 130.867 171.859 130.789V92.2249C171.51 92.2873 171.166 92.3602 170.817 92.4383Z" fill="white"/>
<path d="M170.817 92.4383C166.717 93.2924 162.646 94.2385 158.602 95.2766C157.091 95.662 155.586 96.0613 154.086 96.4744C152.294 96.9692 150.502 97.4813 148.71 98.0107C146.423 98.6877 144.14 99.396 141.86 100.136C141.198 100.354 140.532 100.573 139.865 100.792C133.525 102.906 127.228 105.25 121.034 107.807C119.063 108.299 117.367 109.55 116.314 111.287C115.261 113.025 114.938 115.107 115.414 117.082L120.638 138.58C121.122 140.56 122.371 142.267 124.112 143.327C125.854 144.388 127.944 144.714 129.926 144.235L129.999 144.209C140.184 140.033 150.608 136.464 161.217 133.523C164.384 132.643 167.584 131.813 170.817 131.034C171.166 130.95 171.51 130.867 171.859 130.789V129.716C171.51 129.799 171.166 129.883 170.817 129.966C170.556 130.028 170.291 130.091 170.03 130.153C166.967 130.898 163.937 131.686 160.94 132.518C160.862 132.539 160.779 132.565 160.701 132.586C150.146 135.52 139.774 139.076 129.639 143.236C127.93 143.636 126.132 143.346 124.636 142.428C123.14 141.511 122.066 140.04 121.649 138.335L116.429 116.837C116.015 115.125 116.297 113.319 117.213 111.815C118.129 110.31 119.604 109.23 121.315 108.812L121.394 108.786C128.139 105.994 135.005 103.463 141.922 101.214C142.589 100.995 143.256 100.781 143.923 100.568C145.558 100.052 147.196 99.5505 148.835 99.0627C150.564 98.5472 152.292 98.0507 154.018 97.5733C154.132 97.542 154.247 97.5108 154.361 97.4795C156.049 97.0161 157.742 96.5682 159.44 96.1359C163.206 95.1777 166.999 94.2976 170.817 93.4956C171.161 93.4227 171.51 93.3497 171.858 93.282V92.2249C171.51 92.2873 171.166 92.3602 170.817 92.4383Z" fill="url(#paint3_linear_279_832)"/>
<path d="M171.858 92.7508V130.252C171.515 130.33 171.166 130.409 170.817 130.492C167.556 131.284 164.309 132.127 161.076 133.023C160.946 132.877 160.821 132.731 160.701 132.585C157.326 128.635 154.846 124.001 153.431 119.002C152.017 114.003 151.701 108.757 152.507 103.625C152.533 103.453 152.564 103.276 152.596 103.104C152.622 102.937 152.653 102.765 152.684 102.599C153.006 100.893 153.451 99.2138 154.018 97.5732C154.085 97.3753 154.153 97.1774 154.226 96.9795C155.815 96.5421 157.409 96.122 159.008 95.7193C162.92 94.7089 166.856 93.7906 170.817 92.9643C171.161 92.8862 171.51 92.8185 171.858 92.7508Z" fill="url(#paint4_linear_279_832)"/>
<path d="M147.652 126.721C147.261 125.762 146.506 124.997 145.552 124.594C144.598 124.191 143.523 124.182 142.563 124.571L129.045 130.049C128.087 130.44 127.322 131.195 126.92 132.148C126.518 133.102 126.51 134.176 126.899 135.135C127.289 136.094 128.043 136.859 128.996 137.263C129.949 137.667 131.023 137.676 131.983 137.288L145.501 131.81C146.459 131.418 147.224 130.663 147.627 129.71C148.03 128.756 148.039 127.682 147.652 126.721ZM145.11 130.841L131.592 136.325C130.888 136.609 130.1 136.603 129.4 136.307C128.7 136.011 128.147 135.449 127.861 134.745C127.576 134.042 127.581 133.253 127.876 132.553C128.171 131.853 128.732 131.299 129.436 131.013L142.953 125.534C143.657 125.248 144.446 125.254 145.146 125.549C145.846 125.844 146.4 126.406 146.686 127.109C146.972 127.813 146.966 128.602 146.671 129.301C146.375 130.001 145.814 130.555 145.11 130.841Z" fill="url(#paint5_linear_279_832)"/>
<path d="M171.858 102.328V122.748C171.515 122.835 171.167 122.905 170.816 122.956C168.725 123.249 166.594 122.907 164.7 121.973C162.806 121.039 161.237 119.557 160.197 117.72C159.156 115.883 158.693 113.775 158.866 111.671C159.04 109.567 159.842 107.563 161.17 105.921C161.289 105.77 161.414 105.625 161.55 105.484C161.675 105.338 161.81 105.198 161.951 105.062C163.103 103.923 164.502 103.066 166.04 102.556C167.578 102.047 169.212 101.899 170.816 102.125C171.167 102.172 171.515 102.24 171.858 102.328Z" fill="white"/>
<path d="M170.816 66.8002V118.78C171.166 118.665 171.515 118.556 171.858 118.451V67.2741C171.509 67.1127 171.166 66.9565 170.816 66.8002ZM170.816 66.8002V118.78C171.166 118.665 171.515 118.556 171.858 118.451V67.2741C171.509 67.1127 171.166 66.9565 170.816 66.8002ZM170.816 66.8002V118.78C171.166 118.665 171.515 118.556 171.858 118.451V67.2741C171.509 67.1127 171.166 66.9565 170.816 66.8002ZM170.816 70.5967V130.492C171.166 130.409 171.515 130.331 171.858 130.252V70.8936C171.509 70.7894 171.16 70.6905 170.816 70.5967ZM170.816 70.5967V130.492C171.166 130.409 171.515 130.331 171.858 130.252V70.8936C171.509 70.7894 171.16 70.6905 170.816 70.5967ZM170.816 70.5967V130.492C171.166 130.409 171.515 130.331 171.858 130.252V70.8936C171.509 70.7894 171.16 70.6905 170.816 70.5967ZM170.816 70.5967V130.492C171.166 130.409 171.515 130.331 171.858 130.252V70.8936C171.509 70.7894 171.16 70.6905 170.816 70.5967ZM170.816 70.5967V131.034C171.166 130.95 171.509 130.867 171.858 130.789V70.8936C171.509 70.7894 171.16 70.6905 170.816 70.5967ZM398.06 21.3515H181.63C178.764 21.3563 176.016 22.4968 173.989 24.5234C171.962 26.5499 170.821 29.297 170.816 32.163V192.819C170.821 195.685 171.962 198.431 173.989 200.457C176.017 202.483 178.764 203.622 181.63 203.625H398.06C400.926 203.622 403.673 202.482 405.699 200.457C407.725 198.431 408.865 195.684 408.869 192.819V32.163C408.866 29.2972 407.727 26.5495 405.701 24.5226C403.674 22.4957 400.926 21.3553 398.06 21.3515ZM407.827 192.819C407.824 195.408 406.794 197.89 404.963 199.721C403.132 201.552 400.65 202.581 398.06 202.584H181.63C179.04 202.581 176.557 201.552 174.725 199.722C172.893 197.891 171.862 195.409 171.858 192.819V32.163C171.862 29.573 172.893 27.0902 174.725 25.2589C176.557 23.4275 179.04 22.397 181.63 22.3931H398.06C400.65 22.3961 403.134 23.4265 404.965 25.2582C406.796 27.0899 407.825 29.5732 407.827 32.163V192.819ZM170.816 70.5967V129.966C171.166 129.883 171.509 129.799 171.858 129.716V70.8936C171.509 70.7894 171.16 70.6905 170.816 70.5967ZM170.816 70.5967V130.492C171.166 130.409 171.515 130.331 171.858 130.252V70.8936C171.509 70.7894 171.16 70.6905 170.816 70.5967ZM170.816 70.5967V130.492C171.166 130.409 171.515 130.331 171.858 130.252V70.8936C171.509 70.7894 171.16 70.6905 170.816 70.5967ZM170.816 70.5967V130.492C171.166 130.409 171.515 130.331 171.858 130.252V70.8936C171.509 70.7894 171.16 70.6905 170.816 70.5967ZM170.816 66.8002V118.78C171.166 118.665 171.515 118.556 171.858 118.451V67.2741C171.509 67.1127 171.166 66.9565 170.816 66.8002ZM170.816 66.8002V118.78C171.166 118.665 171.515 118.556 171.858 118.451V67.2741C171.509 67.1127 171.166 66.9565 170.816 66.8002Z" fill="#2F2E41"/>
<path d="M124.418 121.797C124.214 121.321 123.908 120.896 123.521 120.551C123.135 120.206 122.677 119.95 122.181 119.801C121.685 119.652 121.162 119.613 120.649 119.688C120.137 119.763 119.647 119.949 119.214 120.233L109.228 112.562L108.756 119.088L118.311 125.372C118.838 126.068 119.601 126.546 120.456 126.716C121.312 126.887 122.2 126.737 122.953 126.297C123.705 125.856 124.27 125.155 124.54 124.325C124.81 123.496 124.767 122.597 124.418 121.797Z" fill="#FFB6B6"/>
<path d="M84.1775 75.5012L80.8915 73.9486C80.8915 73.9486 75.5979 75.4373 78.1697 82.4358L93.7338 111.424L112.736 122.547L118.66 117.299L99.6439 102.256L84.1775 75.5012Z" fill="#6CBDFD"/>
</g>
<defs>
<linearGradient id="paint0_linear_279_832" x1="111.032" y1="60.6979" x2="180.234" y2="82.2221" gradientUnits="userSpaceOnUse">
<stop stop-color="#2626FD"/>
<stop offset="0.0001" stop-color="#2626FD"/>
<stop offset="1" stop-color="#7E26F4"/>
</linearGradient>
<linearGradient id="paint1_linear_279_832" x1="148.537" y1="67.4564" x2="177.074" y2="71.4642" gradientUnits="userSpaceOnUse">
<stop stop-color="#2626FD"/>
<stop offset="0.0001" stop-color="#2626FD"/>
<stop offset="1" stop-color="#7E26F4"/>
</linearGradient>
<linearGradient id="paint2_linear_279_832" x1="118.413" y1="84.2767" x2="139.224" y2="96.3499" gradientUnits="userSpaceOnUse">
<stop stop-color="#2626FD"/>
<stop offset="0.0001" stop-color="#2626FD"/>
<stop offset="1" stop-color="#7E26F4"/>
</linearGradient>
<linearGradient id="paint3_linear_279_832" x1="115.199" y1="92.2249" x2="181.133" y2="109.947" gradientUnits="userSpaceOnUse">
<stop stop-color="#2626FD"/>
<stop offset="0.0001" stop-color="#2626FD"/>
<stop offset="1" stop-color="#7E26F4"/>
</linearGradient>
<linearGradient id="paint4_linear_279_832" x1="152.072" y1="92.7508" x2="176.4" y2="95.7124" gradientUnits="userSpaceOnUse">
<stop stop-color="#2626FD"/>
<stop offset="0.0001" stop-color="#2626FD"/>
<stop offset="1" stop-color="#7E26F4"/>
</linearGradient>
<linearGradient id="paint5_linear_279_832" x1="126.613" y1="124.285" x2="149.587" y2="133.42" gradientUnits="userSpaceOnUse">
<stop stop-color="#2626FD"/>
<stop offset="0.0001" stop-color="#2626FD"/>
<stop offset="1" stop-color="#7E26F4"/>
</linearGradient>
<clipPath id="clip0_279_832">
<rect width="490" height="226" fill="white"/>
</clipPath>
</defs>
</svg>
